# Blender 4.2.5 LTS
# www.blender.org
mtllib boney.mtl
o boney
v -0.038751 0.102069 0.618261
v -0.023441 0.127696 0.648822
v -0.148133 0.129231 0.369103
v -0.154058 0.418002 0.537241
v 0.042316 0.103845 0.618067
v 0.026044 0.128780 0.648704
v 0.149214 0.135745 0.368393
v 0.143289 0.424516 0.536532
v -0.143983 0.497485 0.420233
v -0.129449 0.354456 0.181333
v 0.129449 0.354456 0.181333
v 0.129184 0.503470 0.419581
v 0.154568 0.123626 -0.309871
v -0.154568 0.123626 -0.309871
v 0.112689 0.431133 -0.226028
v -0.112689 0.431133 -0.226028
v 0.129795 -0.045297 0.115462
v 0.145171 0.406693 -0.019678
v -0.129795 -0.045297 0.115462
v -0.145171 0.406693 -0.019678
v 0.000424 0.169695 0.661470
v -0.037015 0.215645 0.674959
v 0.035878 0.217242 0.674785
v -0.000666 0.215035 0.620933
v 0.136029 0.474490 0.482413
v -0.149252 0.468239 0.483094
v -0.198903 0.245364 0.287679
v 0.198903 0.245364 0.287679
v -0.196251 0.293759 -0.266865
v 0.196251 0.293759 -0.266865
v -0.225882 0.180251 0.048025
v 0.225882 0.180251 0.048025
v -0.089164 0.083227 0.567393
v -0.091639 0.206743 0.664133
v 0.090787 0.210739 0.663697
v 0.093262 0.087224 0.566957
v 0.001146 0.127123 0.573238
v -0.025141 0.102976 0.618472
v 0.028680 0.104155 0.618344
v -0.015784 0.060618 0.611347
v 0.021154 0.061427 0.611259
v -0.019317 0.128336 0.570096
v 0.021521 0.129231 0.569999
v 0.015366 0.245081 0.336144
v 0.048929 -0.004705 0.418289
v 0.015366 0.003808 0.268044
v 0.159910 0.245081 0.336144
v 0.146267 -0.005566 0.417667
v 0.159910 0.003808 0.268044
v 0.112148 0.163897 0.162321
v 0.066405 -0.001765 0.534986
v 0.066405 0.060792 0.582607
v 0.136519 -0.001765 0.534986
v 0.136519 0.060792 0.582607
v 0.066405 -0.007218 0.731384
v 0.066405 0.076931 0.624500
v 0.136519 -0.007218 0.731384
v 0.136519 0.076931 0.624500
v 0.046573 0.019545 -0.347157
v 0.036103 0.047886 -0.274230
v 0.025372 0.221896 -0.310275
v 0.156351 0.019545 -0.347157
v 0.156351 0.047886 -0.274230
v 0.164312 0.170736 -0.447573
v 0.167081 0.221896 -0.310275
v 0.041273 0.170736 -0.447573
v 0.056385 0.012005 -0.443818
v 0.151860 0.012005 -0.443818
v 0.063203 0.099452 -0.621457
v 0.072132 0.054093 -0.536676
v 0.157565 0.099452 -0.621457
v 0.148636 0.054093 -0.536676
v 0.063203 -0.060186 -0.534952
v 0.072132 -0.017553 -0.521355
v 0.157565 -0.060186 -0.534952
v 0.148636 -0.017553 -0.521355
v 0.177118 0.297915 0.479486
v 0.133001 0.442827 0.507050
v 0.175550 0.354187 0.339101
v 0.132030 0.477680 0.420101
v 0.215684 0.308900 0.483459
v 0.171589 0.453031 0.512973
v 0.214116 0.365173 0.343073
v 0.170574 0.489448 0.422122
v 0.143641 0.490729 0.475666
v 0.212396 0.280154 0.390494
v 0.096227 0.150524 -0.213316
v 0.054342 0.114797 0.520146
v 0.041737 0.166008 0.446672
v 0.149186 0.165228 0.446325
v 0.143249 0.114278 0.519615
v -0.015366 0.245146 0.335955
v -0.048929 -0.004869 0.418988
v -0.015366 0.003769 0.268222
v -0.159910 0.245146 0.335955
v -0.146267 -0.005736 0.418371
v -0.159910 0.003769 0.268222
v -0.112148 0.163697 0.162255
v -0.066405 0.001424 0.536183
v -0.066405 0.062562 0.583032
v -0.136519 0.001424 0.536183
v -0.136519 0.062562 0.583032
v -0.066405 -0.006090 0.732512
v -0.066405 0.079242 0.624712
v -0.136519 -0.006090 0.732512
v -0.136519 0.079242 0.624712
v -0.046573 0.019545 -0.347158
v -0.036103 0.047886 -0.274230
v -0.025372 0.221896 -0.310275
v -0.156351 0.019545 -0.347158
v -0.156351 0.047886 -0.274230
v -0.164312 0.170736 -0.447573
v -0.167082 0.221896 -0.310275
v -0.041273 0.170736 -0.447573
v -0.056385 0.012005 -0.443818
v -0.151860 0.012005 -0.443818
v -0.063203 0.099452 -0.621457
v -0.072132 0.054093 -0.536676
v -0.157565 0.099452 -0.621457
v -0.148636 0.054093 -0.536676
v -0.063203 -0.060186 -0.534952
v -0.072132 -0.017553 -0.521355
v -0.157565 -0.060186 -0.534952
v -0.148636 -0.017553 -0.521355
v -0.182582 0.290034 0.480345
v -0.144723 0.436743 0.507712
v -0.184150 0.346307 0.339959
v -0.145694 0.471596 0.420764
v -0.221573 0.299320 0.484502
v -0.183692 0.445247 0.513821
v -0.223141 0.355593 0.344117
v -0.184707 0.481664 0.422970
v -0.157601 0.484129 0.476385
v -0.217473 0.270736 0.391520
v -0.096227 0.150524 -0.213316
v -0.054342 0.115754 0.519877
v -0.041737 0.166241 0.446603
v -0.149186 0.165460 0.446257
v -0.143249 0.115227 0.519352
v -0.000000 0.192797 -0.473034
v -0.000000 0.039686 -0.563952
v -0.000000 0.154427 -0.457261
v 0.014907 0.178463 -0.461420
v -0.013517 0.173612 -0.465148
v -0.034690 0.301737 -0.343911
v -0.000000 0.267388 -0.354714
v 0.034690 0.301737 -0.343911
v -0.000000 0.333144 -0.334454
v 0.000240 0.103532 0.618411
v 0.003300 0.103599 0.618404
v 0.002685 0.061023 0.611303
v -0.001191 0.128733 0.570053
v 0.003395 0.128833 0.570042
v -0.097209 0.267004 0.628684
v -0.055014 0.267929 0.628583
v -0.098138 0.309074 0.625442
v -0.055944 0.309998 0.625341
v -0.076111 0.267466 0.628634
v -0.076398 0.280263 0.625887
v 0.093543 0.271183 0.628229
v 0.051349 0.270259 0.628329
v 0.092614 0.313253 0.624987
v 0.050419 0.312329 0.625087
v 0.072446 0.270721 0.628279
v 0.072159 0.283518 0.625533
vn -0.5457 -0.8089 0.2187
vn -0.5509 -0.0005 0.8346
vn -0.6621 0.3441 0.6657
vn -0.7240 -0.6352 0.2690
vn -0.6323 0.6453 0.4286
vn 0.6030 0.6666 0.4381
vn 0.4800 0.8704 -0.1092
vn -0.5137 0.8499 -0.1174
vn 0.7436 -0.6113 0.2709
vn 0.6445 0.3679 0.6703
vn 0.5543 0.0237 0.8320
vn 0.5817 -0.7842 0.2160
vn 0.0745 -0.6639 0.7441
vn -0.0418 -0.6664 0.7444
vn 0.0080 -0.2609 0.9653
vn -0.6100 0.7877 -0.0865
vn 0.6087 0.7896 -0.0775
vn -0.9949 0.0286 0.0972
vn 0.9929 0.0439 0.1103
vn 0.9996 -0.0217 0.0179
vn 0.4947 -0.8627 0.1050
vn 0.5252 -0.5390 -0.6586
vn 0.8421 0.1933 -0.5035
vn -0.0016 -0.8580 -0.5136
vn 0.3924 0.2945 -0.8713
vn -0.4918 -0.8644 0.1045
vn -0.5252 -0.5390 -0.6586
vn -0.5547 0.8228 0.1235
vn 0.5547 0.8228 0.1235
vn 0.4448 0.8359 -0.3216
vn -0.4448 0.8359 -0.3216
vn -0.9996 -0.0213 0.0170
vn -0.8421 0.1933 -0.5035
vn 0.0220 -0.9959 0.0877
vn 0.8471 0.3312 0.4157
vn -0.8588 0.2939 0.4197
vn -0.0084 0.2804 -0.9598
vn -0.0023 0.6196 -0.7849
vn 0.8103 0.3796 -0.4466
vn 0.9964 -0.0411 -0.0740
vn 0.0028 0.6184 -0.7858
vn -0.5476 0.3309 -0.7686
vn -0.0261 -0.7596 0.6498
vn 0.0624 -0.7577 0.6496
vn -0.0080 0.4630 0.8863
vn -0.0076 0.4459 0.8950
vn -0.0183 0.8864 0.4625
vn 0.0060 -0.1646 0.9863
vn 0.7000 0.5497 0.4559
vn 0.6420 0.7653 0.0459
vn -0.6730 0.7391 0.0280
vn -0.6714 0.5245 0.5236
vn -0.6578 -0.7465 0.1002
vn -0.6833 -0.6129 -0.3968
vn 0.6507 -0.6453 -0.4003
vn 0.6810 -0.7311 0.0413
vn 0.6938 0.5361 0.4809
vn -0.6784 0.5144 0.5246
vn -0.8367 0.5252 0.1553
vn 0.8403 0.5271 0.1269
vn 0.8734 -0.4831 0.0613
vn 0.1298 0.2693 -0.9543
vn -0.6109 0.7829 0.1180
vn 0.6109 0.7829 0.1180
vn -0.8524 -0.5138 0.0970
vn -0.3769 0.7278 0.5730
vn 0.3769 0.7278 0.5730
vn -0.0000 -0.9996 -0.0278
vn -0.6452 -0.7564 0.1072
vn -0.6638 -0.5445 0.5127
vn -0.6800 0.7142 0.1658
vn -0.7226 0.6000 -0.3433
vn 0.6579 0.7277 0.1940
vn 0.7293 0.6252 -0.2778
vn 0.6378 -0.5396 0.5497
vn 0.6606 -0.7350 0.1528
vn -0.6124 -0.7717 -0.1716
vn 0.6206 -0.7713 -0.1414
vn -0.0000 0.1876 0.9823
vn -0.6764 0.6740 -0.2971
vn -0.9431 -0.2885 0.1656
vn -0.4743 -0.2068 0.8558
vn -0.5671 -0.0007 0.8236
vn 0.9466 -0.2356 0.2200
vn 0.6917 0.6780 -0.2487
vn 0.4743 -0.2068 0.8558
vn 0.5671 -0.0007 0.8236
vn -0.0000 -0.4764 -0.8792
vn -0.5009 -0.7113 0.4932
vn -0.7494 0.0258 0.6617
vn -0.7617 0.4698 -0.4461
vn -0.5157 -0.1776 -0.8381
vn 0.4529 0.8238 -0.3409
vn 0.6689 0.1594 -0.7261
vn 0.4657 0.3638 0.8067
vn 0.6839 -0.3810 0.6222
vn 0.2897 -0.8873 -0.3589
vn -0.2905 0.8870 0.3588
vn -0.7004 0.5509 0.4538
vn 0.6718 0.5257 0.5218
vn 0.6730 0.7392 0.0267
vn -0.6420 0.7654 0.0447
vn 0.6543 -0.7484 0.1086
vn -0.6777 -0.7336 0.0504
vn -0.6508 -0.6454 -0.4000
vn 0.6834 -0.6130 -0.3965
vn -0.6946 0.5395 0.4759
vn -0.8404 0.5286 0.1199
vn 0.8369 0.5270 0.1480
vn 0.6791 0.5179 0.5202
vn -0.8752 -0.4780 0.0745
vn -0.1298 0.2679 -0.9547
vn -0.6098 0.7843 0.1141
vn 0.6098 0.7843 0.1141
vn 0.8539 -0.5084 0.1108
vn 0.3729 0.7275 0.5759
vn -0.3729 0.7275 0.5759
vn -0.0000 -0.9993 -0.0382
vn 0.6452 -0.7564 0.1072
vn 0.7226 0.6000 -0.3433
vn 0.6800 0.7142 0.1658
vn 0.6638 -0.5445 0.5127
vn -0.7293 0.6252 -0.2778
vn -0.6579 0.7277 0.1940
vn -0.6606 -0.7350 0.1528
vn -0.6378 -0.5396 0.5497
vn -0.6206 -0.7713 -0.1414
vn 0.6124 -0.7717 -0.1716
vn 0.9431 -0.2885 0.1656
vn 0.6764 0.6740 -0.2971
vn -0.9466 -0.2356 0.2200
vn -0.6917 0.6780 -0.2487
vn 0.5339 -0.6886 0.4907
vn 0.5190 -0.1549 -0.8406
vn 0.7383 0.5027 -0.4497
vn 0.7507 0.0587 0.6581
vn -0.6787 0.1299 -0.7229
vn -0.4901 0.8032 -0.3386
vn -0.6636 -0.4105 0.6254
vn -0.4773 0.3432 0.8089
vn -0.2523 -0.8992 -0.3576
vn 0.2531 0.8990 0.3575
vn -0.0017 -0.8019 -0.5974
vn -0.0010 -0.6955 0.7186
vn -0.9964 -0.0493 -0.0685
vn -0.0634 0.1069 0.9922
vn 0.0634 0.1097 0.9919
vt 0.375000 0.000000
vt 0.625000 0.000000
vt 0.625000 0.250000
vt 0.375000 0.250000
vt 0.875000 0.500000
vt 0.625000 0.500000
vt 0.375000 0.500000
vt 0.625000 0.750000
vt 0.375000 0.750000
vt 0.544659 0.819087
vt 0.544659 0.930913
vt 0.125000 0.500000
vt 0.125000 0.750000
vt 0.875000 0.750000
vt 0.375000 0.250000
vt 0.375000 0.500000
vt 0.375000 0.250000
vt 1.000000 0.000000
vt 1.000000 1.000000
vt 0.000000 1.000000
vt 0.000000 0.000000
vt 0.375000 0.250000
vt 0.375000 0.250000
vt 0.455341 0.930913
vt 0.625000 1.000000
vt 0.375000 1.000000
vt 0.455341 0.819087
vt 0.428498 0.750000
vt 0.428570 1.000000
vt 0.375000 0.693000
vt 0.375000 0.057000
vt 0.428570 0.000000
vt 0.322719 0.766610
vt 0.354104 0.500000
vt 0.500000 0.000000
vt 0.500000 1.000000
s 1
usemtl boney_coat
f 33/1/1 34/2/2 4/3/3 3/4/4
f 26/5/5 25/6/6 12/6/7 9/5/8
f 7/7/9 8/6/10 35/8/11 36/9/12
f 3/12/4 7/7/9 36/9/12 33/13/1
f 8/6/10 4/5/3 34/14/2 35/8/11
f 10/4/16 9/3/8 12/6/7 11/7/17
f 27/15/18 26/3/5 9/3/8 10/4/16
f 25/6/6 28/7/19 11/7/17 12/6/7
f 32/7/20 17/16/21 13/7/22 30/7/23
f 30/7/23 13/7/22 146/7/24 147/7/25
f 17/16/21 19/12/26 14/12/27 13/7/22
f 20/4/28 18/7/29 15/7/30 16/4/31
f 31/15/32 20/4/28 16/4/31 29/17/33
f 27/15/18 10/4/16 20/4/28 31/15/32
f 10/4/16 11/7/17 18/7/29 20/4/28
f 7/7/9 3/12/4 19/12/26 17/16/21
f 27/15/18 31/15/32 19/4/26 3/4/4
f 11/7/17 28/7/19 32/7/20 18/7/29
f 19/4/26 31/15/32 29/17/33 14/4/27
f 16/4/31 15/7/30 148/4/38
f 18/7/29 32/7/20 30/7/23 15/7/30
f 8/6/10 7/7/9 28/7/19 25/6/6
f 3/4/4 4/3/3 26/3/5 27/15/18
f 4/5/3 8/6/10 25/6/6 26/5/5
f 147/21/39 143/21/40 140/21/41 148/21/38
f 29/17/33 16/4/31 148/22/38 145/23/42
f 13/7/22 14/12/27 146/7/24
f 1/24/43 2/11/14 34/25/2 33/26/1
f 6/10/13 5/27/44 36/9/12 35/8/11
f 5/27/44 1/24/43 33/26/1 36/9/12
f 2/11/14 6/10/13 35/8/11 34/25/2
f 15/7/30 30/7/23 147/7/25 148/7/38
f 90/28/49 47/8/50 44/25/51 89/29/52
f 45/4/53 46/3/54 49/6/55 48/7/56
f 91/9/57 88/26/58 52/26/59 54/9/60
f 48/30/56 91/9/57 54/9/60 53/7/61
f 47/8/50 49/6/55 50/8/62
f 46/3/54 44/2/51 50/3/62
f 44/25/51 47/8/50 50/25/62
f 49/6/55 46/3/54 50/6/62
f 54/9/60 52/26/59 56/26/63 58/9/64
f 45/4/53 48/7/56 53/7/61 51/4/65
f 45/31/53 89/32/52 44/2/51 46/3/54
f 48/7/56 49/6/55 47/8/50 90/28/49
f 55/12/66 57/7/67 58/9/64 56/13/63
f 51/4/68 53/7/68 57/7/68 55/4/68
f 53/7/61 54/9/60 58/9/64 57/7/67
f 52/1/59 51/4/65 55/4/66 56/1/63
f 59/1/69 60/2/70 61/3/71 66/4/72
f 66/4/72 61/3/71 65/6/73 64/7/74
f 64/7/74 65/6/73 63/8/75 62/9/76
f 62/9/76 63/8/75 60/25/70 59/26/69
f 62/9/76 59/26/69 67/26/77 68/9/78
f 61/3/71 60/2/70 87/3/79
f 67/1/77 66/4/72 69/4/80 70/1/81
f 59/1/69 66/4/72 67/1/77
f 64/7/74 62/9/76 68/9/78
f 70/1/81 69/4/80 73/4/82 74/1/83
f 68/9/78 67/26/77 70/26/81 72/9/84
f 66/4/72 64/7/74 71/7/85 69/4/80
f 64/7/74 68/9/78 72/9/84 71/7/85
f 73/12/82 75/7/86 76/9/87 74/13/83
f 72/9/84 70/26/81 74/26/83 76/9/87
f 69/4/88 71/7/88 75/7/88 73/4/88
f 71/7/85 72/9/84 76/9/87 75/7/86
f 77/1/89 78/2/90 80/3/91 79/4/92
f 79/4/92 80/3/91 84/6/93 83/7/94
f 83/7/94 84/6/93 82/8/95 81/9/96
f 81/9/96 82/8/95 78/25/90 77/26/89
f 81/9/96 77/26/89 86/9/97
f 82/8/95 84/6/93 85/8/98
f 79/4/92 83/7/94 86/4/97
f 80/3/91 78/2/90 85/3/98
f 78/25/90 82/8/95 85/25/98
f 84/6/93 80/3/91 85/6/98
f 77/1/89 79/4/92 86/1/97
f 83/7/94 81/9/96 86/7/97
f 60/25/70 63/8/75 87/25/79
f 65/6/73 61/3/71 87/6/79
f 63/8/75 65/6/73 87/8/79
f 88/1/58 89/1/52 45/31/53
f 90/28/49 91/33/57 48/30/56
f 88/26/58 91/9/57 90/28/49 89/29/52
f 88/1/58 45/4/53 51/4/65 52/1/59
f 138/28/99 137/29/100 92/25/101 95/8/102
f 93/4/103 96/7/104 97/6/105 94/3/106
f 139/9/107 102/9/108 100/26/109 136/26/110
f 96/30/104 101/7/111 102/9/108 139/9/107
f 95/8/102 98/8/112 97/6/105
f 94/3/106 98/3/112 92/2/101
f 92/25/101 98/25/112 95/8/102
f 97/6/105 98/6/112 94/3/106
f 102/9/108 106/9/113 104/26/114 100/26/109
f 93/4/103 99/4/115 101/7/111 96/7/104
f 93/31/103 94/3/106 92/2/101 137/32/100
f 96/7/104 138/28/99 95/8/102 97/6/105
f 103/12/116 104/13/114 106/9/113 105/7/117
f 99/4/118 103/4/118 105/7/118 101/7/118
f 101/7/111 105/7/117 106/9/113 102/9/108
f 100/1/109 104/1/114 103/4/116 99/4/115
f 107/1/119 114/4/120 109/3/121 108/2/122
f 114/4/120 112/7/123 113/6/124 109/3/121
f 112/7/123 110/9/125 111/8/126 113/6/124
f 110/9/125 107/26/119 108/25/122 111/8/126
f 110/9/125 116/9/127 115/26/128 107/26/119
f 109/3/121 135/3/79 108/2/122
f 115/1/128 118/1/129 117/4/130 114/4/120
f 107/1/119 115/1/128 114/4/120
f 112/7/123 116/9/127 110/9/125
f 118/1/129 122/1/87 121/4/86 117/4/130
f 116/9/127 120/9/131 118/26/129 115/26/128
f 114/4/120 117/4/130 119/7/132 112/7/123
f 112/7/123 119/7/132 120/9/131 116/9/127
f 121/12/86 122/13/87 124/9/83 123/7/82
f 120/9/131 124/9/83 122/26/87 118/26/129
f 117/4/88 121/4/88 123/7/88 119/7/88
f 119/7/132 123/7/82 124/9/83 120/9/131
f 125/1/133 127/4/134 128/3/135 126/2/136
f 127/4/134 131/7/137 132/6/138 128/3/135
f 131/7/137 129/9/139 130/8/140 132/6/138
f 129/9/139 125/26/133 126/25/136 130/8/140
f 129/9/139 134/9/141 125/26/133
f 130/8/140 133/8/142 132/6/138
f 127/4/134 134/4/141 131/7/137
f 128/3/135 133/3/142 126/2/136
f 126/25/136 133/25/142 130/8/140
f 132/6/138 133/6/142 128/3/135
f 125/1/133 134/1/141 127/4/134
f 131/7/137 134/7/141 129/9/139
f 108/25/122 135/25/79 111/8/126
f 113/6/124 135/6/79 109/3/121
f 111/8/126 135/8/79 113/6/124
f 136/1/110 93/31/103 137/1/100
f 138/28/99 96/30/104 139/33/107
f 136/26/110 137/29/100 138/28/99 139/9/107
f 136/1/110 100/1/109 99/4/115 93/4/103
f 140/21/41 143/21/40 141/21/143
f 141/21/143 143/21/40 142/21/144
f 145/21/42 144/21/145 142/21/144 146/21/24
f 140/21/41 144/21/145 145/23/42 148/21/38
f 142/21/144 143/21/40 147/21/39 146/21/24
f 141/21/143 144/21/145 140/21/41
f 142/21/144 144/21/145 141/21/143
f 29/17/33 145/23/42 146/34/24 14/12/27
f 28/7/19 7/7/9 17/16/21 32/7/20
usemtl boney_tongue
f 38/21/45 149/21/46 152/21/47 42/21/47
f 149/21/46 38/21/45 40/21/48 151/21/48
f 150/21/46 39/21/45 43/21/47 153/21/47
f 39/21/45 150/21/46 151/21/48 41/21/48
usemtl boney_eyes
f 6/10/13 2/11/14 37/10/15
f 21/18/34 23/19/35 22/20/36
f 21/18/34 24/18/37 23/19/35
f 23/19/35 24/19/37 22/20/36
f 22/20/36 24/20/37 21/18/34
f 5/27/44 6/10/13 37/27/15
f 1/24/43 5/27/44 37/24/15
f 2/11/14 1/24/43 37/11/15
usemtl boney_tongue_dark
f 150/21/46 153/21/47 152/21/47 149/21/46
f 149/21/46 151/21/48 150/21/46
s 0
usemtl eye
f 158/35/146 155/18/146 157/19/146 159/36/146
f 154/21/147 158/35/147 159/36/147 156/20/147
f 164/35/147 165/36/147 163/19/147 161/18/147
f 160/21/146 162/20/146 165/36/146 164/35/146
